<svg width="206" height="206" viewBox="0 0 206 206" fill="none" xmlns="http://www.w3.org/2000/svg">
<rect width="206" height="206" rx="40.2344" fill="#F6F0E7"/>
<path d="M82.1478 76.7145L42.3576 34.7969C39.6579 31.9528 42.1092 27.3055 45.981 27.9278L108.412 37.9614C126.503 40.7142 149.376 50.5531 159.975 76.397C168.693 97.6541 165.541 114.83 159.274 126.785C158.969 127.367 158.173 127.444 157.72 126.968C150.572 119.437 139.459 117.931 130.731 122.615C128.879 123.609 126.527 123.467 125.08 121.942L106.601 102.475C105.2 100.999 105.152 98.7373 106.023 96.8981C108.751 91.1334 107.834 84.0408 103.18 79.1375C97.793 73.4626 89.2169 72.6344 82.9045 76.795C82.6651 76.9528 82.3452 76.9225 82.1478 76.7145Z" fill="#5C906B"/>
<path d="M124.758 159.66C125.4 159.361 125.522 158.508 125.035 157.994C117.953 150.534 116.979 139.497 121.95 131.055C123.004 129.263 122.968 126.939 121.537 125.431L102.908 105.806C101.529 104.354 99.3186 104.168 97.4546 104.899C91.6062 107.191 84.6988 105.875 80.1078 101.039C74.8131 95.4608 74.3547 87.0499 78.5977 80.9835C78.7801 80.7227 78.7613 80.368 78.5422 80.1372L38.7521 38.2196C36.0523 35.3755 31.2838 37.5816 31.7037 41.4805L38.4748 104.35C40.2825 122.559 48.9177 145.913 74.175 157.842C95.0778 167.715 112.48 165.373 124.758 159.66Z" fill="#5C906B"/>
<path d="M137.071 133.672C159.367 143.049 170.155 161.198 173.614 171.447C174.121 172.947 173.128 174.482 171.572 174.782L157.17 177.562C155.742 177.837 154.346 176.96 153.931 175.565C148.3 156.633 138.954 145.221 133.182 140.339C131.91 139.263 131.604 137.331 132.655 136.038L133.919 134.482C134.679 133.547 135.961 133.205 137.071 133.672Z" fill="#5C906B"/>
</svg>
