<svg width="23" height="14" viewBox="0 0 23 14" fill="none" xmlns="http://www.w3.org/2000/svg">
<path fill-rule="evenodd" clip-rule="evenodd" d="M21.9837 3.2326L14.9085 12.0997C14.9079 12.1002 14.9074 12.1008 14.9068 12.1013C14.2943 12.7138 13.4635 13.0579 12.5973 13.0579H8.19991C7.33368 13.0579 6.50293 12.7138 5.89041 12.1013C5.70734 11.9182 5.54824 11.7156 5.41513 11.4984H4.4095C3.46349 11.4984 2.5562 11.1226 1.88729 10.4537C1.21835 9.78476 0.842536 8.87749 0.842532 7.93149L0.84253 7.08652C0.842527 6.14051 1.21834 5.23324 1.88727 4.5643C2.55618 3.89536 3.46347 3.51958 4.40947 3.51958H5.99142C6.59266 2.96771 7.38038 2.65974 8.19988 2.65974H12.5973C13.4635 2.65974 14.2943 3.00383 14.9068 3.61635C15.5193 4.22887 15.8634 5.05963 15.8634 5.92586L15.8634 7.59882L20.3467 1.98019C20.5361 1.76368 20.8143 1.62684 21.1243 1.62684C21.6944 1.62684 22.1572 2.08965 22.1572 2.65974C22.1572 2.87157 22.0933 3.06862 21.9837 3.2326ZM4.95125 10.129C4.93967 10.0175 4.9338 9.90494 4.93379 9.7918L4.93378 5.92586C4.93378 5.57002 4.99184 5.22017 5.10274 4.88898H4.40947C3.82663 4.88898 3.2677 5.1205 2.85559 5.53262C2.44345 5.94473 2.21192 6.5037 2.21193 7.08652L2.21193 7.93149C2.21193 8.5143 2.44346 9.07327 2.8556 9.48538C3.26771 9.8975 3.82665 10.129 4.40949 10.129H4.95125ZM13.9939 2.31154H6.99205C6.61414 2.31154 6.30735 2.00472 6.30735 1.62684C6.30734 1.24893 6.61414 0.942139 6.99204 0.942139H13.9939C14.3718 0.942139 14.6786 1.24893 14.6786 1.62684C14.6786 2.00472 14.3718 2.31154 13.9939 2.31154Z" fill="#F5F5F5"/>
</svg>
