<svg width="32" height="32" viewBox="0 0 32 32" fill="none" xmlns="http://www.w3.org/2000/svg">
<path d="M21.3334 21.3333C21.3334 21.687 21.1929 22.0261 20.9429 22.2761C20.6928 22.5262 20.3537 22.6667 20.0001 22.6667H17.3334V25.3333C17.3334 25.687 17.1929 26.0261 16.9429 26.2761C16.6928 26.5262 16.3537 26.6667 16.0001 26.6667C15.6465 26.6667 15.3073 26.5262 15.0573 26.2761C14.8072 26.0261 14.6667 25.687 14.6667 25.3333V22.6667H12.0001C11.6465 22.6667 11.3073 22.5262 11.0573 22.2761C10.8072 22.0261 10.6667 21.687 10.6667 21.3333C10.6667 20.9797 10.8072 20.6406 11.0573 20.3905C11.3073 20.1405 11.6465 20 12.0001 20H14.6667V17.3333C14.6667 16.9797 14.8072 16.6406 15.0573 16.3905C15.3073 16.1405 15.6465 16 16.0001 16C16.3537 16 16.6928 16.1405 16.9429 16.3905C17.1929 16.6406 17.3334 16.9797 17.3334 17.3333V20H20.0001C20.3537 20 20.6928 20.1405 20.9429 20.3905C21.1929 20.6406 21.3334 20.9797 21.3334 21.3333ZM29.3334 13.98V25.3333C29.3313 27.1008 28.6282 28.7953 27.3785 30.045C26.1287 31.2948 24.4342 31.9979 22.6667 32H9.33342C7.56595 31.9979 5.87149 31.2948 4.62171 30.045C3.37192 28.7953 2.66887 27.1008 2.66675 25.3333V6.66667C2.66887 4.89921 3.37192 3.20474 4.62171 1.95496C5.87149 0.705176 7.56595 0.00211736 9.33342 2.1399e-07H15.3534C16.5796 -0.00315569 17.7942 0.236784 18.927 0.705946C20.0599 1.17511 21.0885 1.86418 21.9534 2.73333L26.5987 7.38133C27.4684 8.24565 28.1579 9.27394 28.6273 10.4066C29.0967 11.5393 29.3367 12.7539 29.3334 13.98ZM20.0681 4.61867C19.6485 4.21221 19.1773 3.86257 18.6667 3.57867V9.33333C18.6667 9.68696 18.8072 10.0261 19.0573 10.2761C19.3073 10.5262 19.6465 10.6667 20.0001 10.6667H25.7547C25.4707 10.1563 25.1206 9.68553 24.7134 9.26667L20.0681 4.61867ZM26.6667 13.98C26.6667 13.76 26.6241 13.5493 26.6041 13.3333H20.0001C18.9392 13.3333 17.9218 12.9119 17.1717 12.1618C16.4215 11.4116 16.0001 10.3942 16.0001 9.33333V2.72933C15.7841 2.70933 15.5721 2.66667 15.3534 2.66667H9.33342C8.27255 2.66667 7.25513 3.08809 6.50499 3.83824C5.75484 4.58839 5.33341 5.6058 5.33341 6.66667V25.3333C5.33341 26.3942 5.75484 27.4116 6.50499 28.1618C7.25513 28.9119 8.27255 29.3333 9.33342 29.3333H22.6667C23.7276 29.3333 24.745 28.9119 25.4952 28.1618C26.2453 27.4116 26.6667 26.3942 26.6667 25.3333V13.98Z" fill="#58340E"/>
</svg>
