<svg width="41" height="25" viewBox="0 0 41 25" fill="none" xmlns="http://www.w3.org/2000/svg">
<path fill-rule="evenodd" clip-rule="evenodd" d="M38.6381 6.92398L25.8607 22.9372C25.8598 22.9382 25.8588 22.9391 25.8578 22.9401C24.7516 24.0462 23.2514 24.6677 21.687 24.6677H13.7457C12.1813 24.6677 10.6811 24.0462 9.57491 22.9401C9.24429 22.6095 8.95697 22.2436 8.71659 21.8514H6.9005C5.19209 21.8514 3.55361 21.1727 2.34561 19.9647C1.13756 18.7566 0.458867 17.1182 0.458861 15.4098L0.458856 13.8838C0.458851 12.1754 1.13753 10.537 2.34557 9.32892C3.55356 8.12087 5.19205 7.44223 6.90045 7.44223H9.75732C10.8431 6.4456 12.2657 5.88944 13.7456 5.88944H21.687C23.2513 5.88944 24.7516 6.51085 25.8577 7.61701C26.9639 8.72317 27.5853 10.2234 27.5853 11.7878L27.5853 14.809L35.6817 4.66224C36.0237 4.27123 36.5263 4.02411 37.0861 4.02411C38.1156 4.02411 38.9514 4.8599 38.9514 5.88944C38.9514 6.272 38.836 6.62784 38.6381 6.92398ZM7.87886 19.3783C7.85795 19.177 7.84734 18.9737 7.84734 18.7694L7.84731 11.7878C7.84731 11.1452 7.95217 10.5134 8.15243 9.91526H6.90046C5.8479 9.91526 4.83851 10.3334 4.09427 11.0776C3.34998 11.8219 2.93186 12.8313 2.93187 13.8838L2.93187 15.4098C2.93188 16.4623 3.35 17.4717 4.09429 18.216C4.83854 18.9602 5.84793 19.3783 6.90049 19.3783H7.87886ZM24.2092 5.26062H11.5644C10.8819 5.26062 10.3279 4.70653 10.3279 4.02411C10.3279 3.34164 10.8819 2.7876 11.5644 2.7876H24.2092C24.8917 2.7876 25.4457 3.34164 25.4457 4.02411C25.4457 4.70653 24.8917 5.26062 24.2092 5.26062Z" fill="#367748"/>
</svg>
