<svg width="192" height="181" viewBox="0 0 192 181" fill="none" xmlns="http://www.w3.org/2000/svg">
<path d="M53.0405 109.069C53.0405 109.069 96.9122 57.2641 88.8932 44.1327C80.8742 31.0013 73.2117 53.7832 73.2117 53.7832C73.2117 53.7832 82.3094 16.5707 70.5136 15.7193C58.7178 14.8679 59.5759 32.7673 59.5759 32.7673C59.5759 32.7673 59.0944 3.00353 45.8043 4.02574C32.5142 5.0493 44.1715 34.298 44.1715 34.298C44.1715 34.298 32.5425 12.3177 25.9707 24.396C19.399 36.4742 45.4761 65.2508 45.4761 65.2508C45.4761 65.2508 26.6311 46.3574 23.161 61.0799C19.017 78.67 53.0405 109.069 53.0405 109.069Z" fill="#DCDCDC"/>
<path d="M47.7487 112.379C47.7487 112.379 65.4343 73.6235 56.3958 45.8772L47.7487 112.379Z" fill="#DCDCDC"/>
<path d="M111.354 94.2641C111.354 94.2641 149.267 63.8627 145.428 53.5397C141.59 43.2168 133.089 58.176 133.089 58.176C133.089 58.176 144.572 33.2717 136.401 31.0605C128.228 28.8493 126.383 41.5435 126.383 41.5435C126.383 41.5435 130.115 20.5627 120.637 19.4638C111.159 18.3649 115.35 40.5119 115.35 40.5119C115.35 40.5119 110.185 23.4773 103.915 31.0646C97.6454 38.6531 112.032 62.4397 112.032 62.4397C112.032 62.4397 101.374 46.586 96.9218 56.4571C91.6049 68.2502 111.354 94.2641 111.354 94.2641Z" fill="#DCDCDC"/>
<path d="M107.184 95.8674C107.184 95.8674 124.913 71.0545 122.356 50.3211L107.184 95.8674Z" fill="#DCDCDC"/>
<path d="M106.623 131.17C106.623 131.17 104.595 59.5976 119.848 54.0616C135.102 48.5241 126.412 72.339 126.412 72.339C126.412 72.339 143.424 35.69 153.701 42.7567C163.98 49.8234 151.484 64.0053 151.484 64.0053C151.484 64.0053 171.482 39.8017 181.758 49.3957C192.034 58.9911 163.167 75.411 163.167 75.411C163.167 75.411 187.223 64.9616 184.684 79.2389C182.143 93.5175 141.709 100.053 141.709 100.053C141.709 100.053 169.677 96.8976 162.84 111.312C154.672 128.532 106.623 131.17 106.623 131.17Z" fill="#DCDCDC"/>
<path d="M108.802 137.381C108.802 137.381 119.755 93.8054 145.473 76.8999L108.802 137.381Z" fill="#DCDCDC"/>
<path d="M112.806 139.161C112.806 139.161 66.8774 95.3777 73.0242 82.3768C79.1709 69.3746 88.5577 89.7865 88.5577 89.7865C88.5577 89.7865 76.4002 56.106 87.2786 54.1423C98.1558 52.1786 99.1403 68.8984 99.1403 68.8984C99.1403 68.8984 96.6278 41.1885 109.081 40.8173C121.535 40.446 113.61 68.7895 113.61 68.7895C113.61 68.7895 122.231 47.2047 129.54 57.7765C136.849 68.3483 115.475 97.6871 115.475 97.6871C115.475 97.6871 131.11 78.253 135.8 91.5902C141.403 107.525 112.806 139.161 112.806 139.161Z" fill="#DCDCDC"/>
<path d="M118.053 141.711C118.053 141.711 97.7605 107.451 103.401 80.7655L118.053 141.711Z" fill="#DCDCDC"/>
<path d="M70.754 128.245C70.754 128.245 80.4005 70.0337 68.563 63.8103C56.7255 57.5869 61.1641 78.0015 61.1641 78.0015C61.1641 78.0015 51.3657 46.1785 42.1846 50.8013C33.0035 55.4241 41.6224 68.3981 41.6224 68.3981C41.6224 68.3981 27.996 46.4031 18.5352 53.0905C9.07438 59.7779 30.8098 76.4063 30.8098 76.4063C30.8098 76.4063 12.3347 65.1889 12.8149 77.1299C13.295 89.0723 45.5807 98.9219 45.5807 98.9219C45.5807 98.9219 23.0975 93.223 27.0707 105.756C31.8159 120.726 70.754 128.245 70.754 128.245Z" fill="#DCDCDC"/>
<path d="M68.2821 133.073C68.2821 133.073 64.2041 96.2708 45.0928 79.5967L68.2821 133.073Z" fill="#DCDCDC"/>
<path d="M75.6882 139.335C75.6882 139.335 45.6904 95.1396 53.061 85.5362C60.4317 75.9328 64.5232 94.3972 64.5232 94.3972C64.5232 94.3972 60.5138 64.5231 69.8132 64.8419C79.1126 65.1606 76.9471 79.0936 76.9471 79.0936C76.9471 79.0936 79.8107 55.8478 90.1229 57.7577C100.435 59.6676 88.872 81.5779 88.872 81.5779C88.872 81.5779 99.8057 65.353 103.939 75.3518C108.072 85.3506 85.2661 105.687 85.2661 105.687C85.2661 105.687 101.588 92.4792 103.074 104.288C104.845 118.394 75.6882 139.335 75.6882 139.335Z" fill="#DCDCDC"/>
<path d="M79.5517 142.367C79.5517 142.367 68.9516 110.568 78.3411 89.6157L79.5517 142.367Z" fill="#DCDCDC"/>
<path d="M109.134 132.8C109.134 132.8 135.824 126.339 136.335 120.135C136.848 113.932 128.911 119.548 128.911 119.548C128.911 119.548 140.759 109.56 137.109 106.469C133.458 103.378 129.469 109.43 129.469 109.43C129.469 109.43 136.411 99.5917 131.824 96.7551C127.238 93.9198 124.07 106.256 124.07 106.256C124.07 106.256 125.513 96.3018 120.486 98.6798C115.458 101.059 117.114 116.68 117.114 116.68C117.114 116.68 115.463 106.013 110.818 109.995C105.268 114.754 109.134 132.8 109.134 132.8Z" fill="#DCDCDC"/>
<path d="M106.615 132.62C106.615 132.62 121.637 124.176 125.301 112.956L106.615 132.62Z" fill="#DCDCDC"/>
<path d="M41.4376 154.07C41.4376 164.46 46.5783 173.917 54.9859 181H130.348C138.756 173.917 143.897 164.46 143.897 154.07C143.897 145.907 140.723 138.32 135.286 132.007H50.0484C44.6118 138.32 41.4376 145.907 41.4376 154.07Z" fill="#DCDCDC"/>
<path d="M135.329 132.007H116.094C120.25 137.752 122.632 144.374 122.632 151.433C122.632 161.823 117.492 171.278 109.084 178.362H52.1642C53.0721 179.273 54.0257 180.154 55.0291 181H130.392C138.799 173.917 143.94 164.46 143.94 154.07C143.94 145.907 140.766 138.32 135.329 132.007Z" fill="#DCDCDC"/>
<path d="M143.296 137.03H42.0392V129.166C42.0392 125.047 45.3775 121.708 49.4973 121.708H135.838C139.956 121.708 143.296 125.047 143.296 129.166V137.03Z" fill="#DCDCDC"/>
<mask id="mask0_806_6084" style="mask-type:alpha" maskUnits="userSpaceOnUse" x="0" y="0" width="192" height="181">
<path d="M44.5805 3.02289C23.9113 9.52164 6.24802 8.68468 0 7.45385V181H192V7.45386C182.881 10.1617 176.802 12.6233 135.261 7.45386C119.606 5.50563 70.4169 -5.10055 44.5805 3.02289Z" fill="#D9D9D9"/>
</mask>
<g mask="url(#mask0_806_6084)">
<path d="M53.0399 109.069C53.0399 109.069 96.9116 57.2641 88.8926 44.1327C80.8736 31.0013 73.2111 53.7832 73.2111 53.7832C73.2111 53.7832 82.3088 16.5707 70.513 15.7193C58.7172 14.8679 59.5753 32.7673 59.5753 32.7673C59.5753 32.7673 59.0938 3.00353 45.8037 4.02574C32.5136 5.0493 44.1709 34.298 44.1709 34.298C44.1709 34.298 32.5419 12.3177 25.9701 24.396C19.3984 36.4742 45.4755 65.2508 45.4755 65.2508C45.4755 65.2508 26.6306 46.3574 23.1604 61.0799C19.0164 78.67 53.0399 109.069 53.0399 109.069Z" fill="#27423A"/>
<path d="M47.748 112.379C47.748 112.379 65.4336 73.6235 56.3951 45.8772" stroke="#27423A" stroke-width="0.672507" stroke-miterlimit="10"/>
<path d="M111.353 94.264C111.353 94.264 149.266 63.8627 145.427 53.5397C141.589 43.2167 133.088 58.1759 133.088 58.1759C133.088 58.1759 144.571 33.2717 136.4 31.0605C128.227 28.8493 126.382 41.5435 126.382 41.5435C126.382 41.5435 130.114 20.5627 120.636 19.4638C111.158 18.3649 115.349 40.5119 115.349 40.5119C115.349 40.5119 110.184 23.4773 103.913 31.0645C97.6444 38.6531 112.031 62.4397 112.031 62.4397C112.031 62.4397 101.373 46.586 96.9207 56.457C91.6039 68.2501 111.353 94.264 111.353 94.264Z" fill="#27423A"/>
<path d="M107.184 95.8674C107.184 95.8674 124.912 71.0545 122.355 50.3211" stroke="#27423A" stroke-width="0.672507" stroke-miterlimit="10"/>
<path d="M106.622 131.17C106.622 131.17 104.594 59.5977 119.847 54.0616C135.101 48.5242 126.411 72.339 126.411 72.339C126.411 72.339 143.423 35.69 153.7 42.7567C163.979 49.8234 151.484 64.0053 151.484 64.0053C151.484 64.0053 171.481 39.8017 181.757 49.3957C192.033 58.9911 163.166 75.411 163.166 75.411C163.166 75.411 187.222 64.9616 184.683 79.2389C182.142 93.5176 141.708 100.053 141.708 100.053C141.708 100.053 169.676 96.8976 162.84 111.312C154.671 128.532 106.622 131.17 106.622 131.17Z" fill="#9DBF6A"/>
<path d="M108.801 137.381C108.801 137.381 119.754 93.8055 145.472 76.9" stroke="#27423A" stroke-width="0.672507" stroke-miterlimit="10"/>
<path d="M112.805 139.161C112.805 139.161 66.8765 95.3777 73.0232 82.3768C79.1699 69.3746 88.5568 89.7865 88.5568 89.7865C88.5568 89.7865 76.3992 56.106 87.2777 54.1423C98.1548 52.1786 99.1394 68.8985 99.1394 68.8985C99.1394 68.8985 96.6269 41.1885 109.08 40.8173C121.534 40.4461 113.609 68.7895 113.609 68.7895C113.609 68.7895 122.231 47.2047 129.539 57.7765C136.848 68.3483 115.475 97.6871 115.475 97.6871C115.475 97.6871 131.109 78.253 135.799 91.5902C141.402 107.525 112.805 139.161 112.805 139.161Z" fill="#699A59"/>
<path d="M118.051 141.711C118.051 141.711 97.7592 107.451 103.4 80.7655" stroke="#27423A" stroke-width="0.672507" stroke-miterlimit="10"/>
<path d="M70.753 128.245C70.753 128.245 80.3995 70.0337 68.562 63.8103C56.7246 57.5869 61.1631 78.0015 61.1631 78.0015C61.1631 78.0015 51.3647 46.1785 42.1836 50.8013C33.0025 55.4241 41.6214 68.3981 41.6214 68.3981C41.6214 68.3981 27.9951 46.4031 18.5342 53.0905C9.0734 59.778 30.8088 76.4064 30.8088 76.4064C30.8088 76.4064 12.3337 65.1889 12.8139 77.13C13.2941 89.0723 45.5798 98.9219 45.5798 98.9219C45.5798 98.9219 23.0965 93.223 27.0697 105.756C31.8149 120.726 70.753 128.245 70.753 128.245Z" fill="#699A59"/>
<path d="M68.2812 133.073C68.2812 133.073 64.2031 96.2708 45.0918 79.5967" stroke="#27423A" stroke-width="0.672507" stroke-miterlimit="10"/>
<path d="M75.6873 139.335C75.6873 139.335 45.6894 95.1396 53.0601 85.5362C60.4308 75.9328 64.5223 94.3972 64.5223 94.3972C64.5223 94.3972 60.5128 64.5231 69.8122 64.8419C79.1117 65.1606 76.9462 79.0936 76.9462 79.0936C76.9462 79.0936 79.8097 55.8478 90.1219 57.7577C100.434 59.6676 88.8711 81.5779 88.8711 81.5779C88.8711 81.5779 99.8047 65.353 103.938 75.3518C108.071 85.3506 85.2651 105.687 85.2651 105.687C85.2651 105.687 101.587 92.4792 103.073 104.288C104.844 118.394 75.6873 139.335 75.6873 139.335Z" fill="#9DBF6A"/>
<path d="M79.5506 142.367C79.5506 142.367 68.9505 110.568 78.3401 89.6157" stroke="#27423A" stroke-width="0.672507" stroke-miterlimit="10"/>
<path d="M109.133 132.8C109.133 132.8 135.824 126.339 136.335 120.135C136.847 113.932 128.91 119.548 128.91 119.548C128.91 119.548 140.758 109.56 137.108 106.469C133.458 103.378 129.468 109.431 129.468 109.431C129.468 109.431 136.41 99.5917 131.823 96.7551C127.237 93.9198 124.069 106.256 124.069 106.256C124.069 106.256 125.513 96.3018 120.485 98.6798C115.457 101.059 117.113 116.68 117.113 116.68C117.113 116.68 115.463 106.013 110.817 109.995C105.268 114.754 109.133 132.8 109.133 132.8Z" fill="#27423A"/>
<path d="M106.614 132.62C106.614 132.62 121.636 124.176 125.3 112.956" stroke="#27423A" stroke-width="0.672507" stroke-miterlimit="10"/>
<path d="M41.4366 154.07C41.4366 164.46 46.5773 173.917 54.985 181L92.0001 189L130.347 181C138.755 173.917 143.896 164.46 143.896 154.07C143.896 145.907 140.722 138.32 135.285 132.007H50.0474C44.6109 138.32 41.4366 145.907 41.4366 154.07Z" fill="#D17D22"/>
<path opacity="0.67" d="M135.328 132.007H116.093C120.249 137.752 122.631 144.374 122.631 151.433C122.631 161.823 117.491 171.278 109.083 178.362H52.1633C53.0712 179.273 54.0248 180.154 55.0282 181H130.391C138.798 173.917 143.939 164.46 143.939 154.07C143.939 145.907 140.765 138.32 135.328 132.007Z" fill="#965E22"/>
<path d="M143.295 137.03H42.0385V129.166C42.0385 125.047 45.3768 121.708 49.4966 121.708H135.837C139.955 121.708 143.295 125.047 143.295 129.166V137.03Z" fill="#D68D3E"/>
</g>
</svg>
