<svg width="130" height="167" viewBox="0 0 130 167" fill="none" xmlns="http://www.w3.org/2000/svg">
<path d="M61.3098 166.886C49.0428 166.886 38.3092 164.649 29.109 160.175C19.9087 155.751 12.7446 149.567 7.61659 141.623C2.53886 133.63 0 124.304 0 113.646C0 108.015 0.452471 103.088 1.35741 98.8649C2.26235 94.5916 3.36839 90.7958 4.67553 87.4777C5.98267 84.1596 7.28981 81.0426 8.59695 78.1266C9.95436 75.2107 11.0604 72.2948 11.9151 69.3789C12.82 66.4127 13.2725 63.17 13.2725 59.6508C13.2725 57.6398 13.1719 55.7293 12.9708 53.9195C12.7697 52.0593 12.6692 50.5008 12.6692 49.2439C12.6692 47.0821 13.2725 45.3728 14.4791 44.1159C15.6857 42.8591 17.2693 42.2306 19.23 42.2306C21.6432 42.2306 24.1066 42.9345 26.6204 44.3422C29.1341 45.6996 31.4467 47.7357 33.5583 50.4505C35.7201 53.1653 37.5551 56.5589 39.0633 60.6311L35.8206 61.4606C36.6753 59.9021 37.2032 58.5196 37.4043 57.313C37.6556 56.1064 37.7813 54.8747 37.7813 53.6178C37.731 48.8417 36.8512 44.3422 35.1419 40.1191C33.4828 35.8458 31.2959 31.7232 28.5811 27.7516C25.8663 23.7799 22.9252 19.8836 19.7579 16.0627C18.853 15.007 18.1491 13.9009 17.6464 12.7446C17.1939 11.538 16.9677 10.3566 16.9677 9.20024C16.9677 6.23404 18.1994 3.97169 20.6628 2.41318C23.1766 0.804393 26.4947 0 30.6172 0C37.3037 0 44.3924 0.82953 51.8833 2.48859C59.3742 4.09738 66.84 6.6111 74.2806 10.0298C81.7213 13.3982 88.7597 17.7218 95.396 23.0006C102.082 28.2794 108.015 34.5135 113.193 41.7027C118.371 48.892 122.444 57.137 125.41 66.4378C128.426 75.6883 129.935 86.0449 129.935 97.5075C129.935 107.864 128.301 117.316 125.033 125.862C121.815 134.359 117.165 141.649 111.082 147.732C104.998 153.865 97.7589 158.591 89.363 161.909C80.9672 165.227 71.6161 166.886 61.3098 166.886ZM63.1951 142.151C68.9767 142.151 73.8282 140.92 77.7496 138.456C81.671 135.942 84.6372 132.599 86.6482 128.426C88.6592 124.254 89.6647 119.628 89.6647 114.551C89.6647 109.473 88.7094 104.445 86.799 99.4682C84.8886 94.491 82.0732 89.9663 78.3529 85.8941C74.6828 81.7716 70.133 78.5037 64.7033 76.0905C64.1503 75.8392 63.6727 75.8643 63.2705 76.1659C62.8683 76.4173 62.7426 76.8698 62.8935 77.5234C63.5973 83.1541 63.6476 88.4329 63.0443 93.3598C62.4913 98.2867 61.2595 102.284 59.3491 105.35C58.4944 103.088 57.4889 101.027 56.3326 99.1665C55.2266 97.2561 53.8692 95.5216 52.2604 93.9631C51.7576 93.5609 51.28 93.4604 50.8276 93.6615C50.4254 93.8123 50.1991 94.1642 50.1489 94.7173C49.8975 97.0802 49.2188 99.1917 48.1127 101.052C47.057 102.912 45.9007 104.797 44.6438 106.708C43.3869 108.568 42.2809 110.654 41.3257 112.967C40.3705 115.28 39.8929 118.045 39.8929 121.262C39.8929 127.496 42.0295 132.549 46.3029 136.42C50.5762 140.241 56.2069 142.151 63.1951 142.151Z" fill="url(#paint0_linear_766_1788)"/>
<defs>
<linearGradient id="paint0_linear_766_1788" x1="65" y1="43.5" x2="64.9673" y2="166.886" gradientUnits="userSpaceOnUse">
<stop stop-color="#FEC868"/>
<stop offset="1" stop-color="#D34E4E"/>
</linearGradient>
</defs>
</svg>
